PathFileType	4	(X/Y/Z)	S01_0011_Gait_markers.trc
DataRate	CameraRate	NumFrames	NumMarkers	Units	OrigDataRate	OrigDataStartFrame	OrigNumFrames
250.000000	250.000000	4	54	mm	250.000000	314	359
Frame#	Time	HEAD_ANT			R_HEAD			L_HEAD			C7			R_BACK			L_BACK			STERNUM			R_ACROMION			R_HUM_PROX			R_HUM_ANT			R_HUM_POST			R_ELBOW_LAT			R_ELBOW_MED			R_FOREARM			R_WIRST_LAT			R_WRITS_MED			R_HAND			L_ACROMION			L_HUM_PROX			L_HUM_ANT			L_HUM_POST			L_ELBOW_LAT			L_ELBOW_MED			L_FOREARM			L_WRIST_LAT			L_WIRST_MED			L_HAND			R_ILIAC			SACRUM			L_ILIAC			R_GTROCH			R_THIGH__1			R_THIGH_2			R_THIGH_3			R_THIGH_4			R_SHANK_1			R_SHANK_2			R_SHANK_3			R_SHANK_4			R_HEEL			R_FOOT_LAT			R_FOOT_MED			L_GTROCH			L_THIGH_1			L_THIGH_2			L_THIGH_3			L_THIGH_4			L_SHANK_1			L_SHANK_2			L_SHANK_3			L_SHANK_4			L_HEEL			L_FOOT_LAT			L_FOOT_MED			
		X1	Y1	Z1	X2	Y2	Z2	X3	Y3	Z3	X4	Y4	Z4	X5	Y5	Z5	X6	Y6	Z6	X7	Y7	Z7	X8	Y8	Z8	X9	Y9	Z9	X10	Y10	Z10	X11	Y11	Z11	X12	Y12	Z12	X13	Y13	Z13	X14	Y14	Z14	X15	Y15	Z15	X16	Y16	Z16	X17	Y17	Z17	X18	Y18	Z18	X19	Y19	Z19	X20	Y20	Z20	X21	Y21	Z21	X22	Y22	Z22	X23	Y23	Z23	X24	Y24	Z24	X25	Y25	Z25	X26	Y26	Z26	X27	Y27	Z27	X28	Y28	Z28	X29	Y29	Z29	X30	Y30	Z30	X31	Y31	Z31	X32	Y32	Z32	X33	Y33	Z33	X34	Y34	Z34	X35	Y35	Z35	X36	Y36	Z36	X37	Y37	Z37	X38	Y38	Z38	X39	Y39	Z39	X40	Y40	Z40	X41	Y41	Z41	X42	Y42	Z42	X43	Y43	Z43	X44	Y44	Z44	X45	Y45	Z45	X46	Y46	Z46	X47	Y47	Z47	X48	Y48	Z48	X49	Y49	Z49	X50	Y50	Z50	X51	Y51	Z51	X52	Y52	Z52	X53	Y53	Z53	X54	Y54	Z54	

315	1.256	1892.871215820312	1704.319580078125	-304.3110656738277	1832.891357421875	1654.140380859375	-227.5576477050778	1832.765014648438	1655.607543945312	-373.5177917480465	1694.176391601562	1485.802612304688	-305.6607666015622	1613.351440429688	1289.760620117188	-250.7093963623044	1621.001953125	1295.105712890625	-383.9911804199216	1870.489379882812	1320.156494140625	-301.6825561523435	1762.635498046875	1430.317138671875	-133.0228118896481	1713.138549804688	1270.9599609375	-48.66786193847628	1772.1953125	1184.23388671875	-39.65559387207005	1650.3583984375	1189.87451171875	-39.4292259216306	1695.159057617188	1081.603637695312	-27.92378807067847	1675.518798828125	1076.81298828125	-109.0793991088865	1786.918579101562	895.6082153320312	-16.7917480468748	1830.575073242188	828.9121704101562	-49.9431724548338	1756.893310546875	807.7285766601562	-27.92636871337873	1817.738159179688	737.2630004882812	-1.612806558608845	1779.326416015625	1442.822143554688	-472.5365905761715	1762.53857421875	1277.629760742188	-569.765441894531	1827.019897460938	1199.087646484375	-568.1405639648435	1707.172485351562	1198.83544921875	-599.2301635742185	1770.111206054688	1095.620971679688	-606.0443725585935	1717.36962890625	1083.577514648438	-548.5624389648435	1900.546142578125	938.3805541992189	-574.6915283203123	1938.702026367188	887.2313842773439	-519.052551269531	1900.53515625	854.3381347656251	-580.1151733398435	1986.052490234375	815.5139160156251	-562.3907470703123	1778.497680664062	1037.319458007812	-141.869445800781	1645.928100585938	1008.473449707031	-307.157775878906	1759.83203125	1033.6572265625	-488.3002929687498	1756.683959960938	888.970703125	-127.3451385498045	1890.9638671875	634.6486206054688	-162.4410400390624	1937.971923828125	670.537841796875	-165.2930450439452	1973.501098632812	575.5778198242188	-202.7429809570311	1915.030639648438	559.0631103515625	-185.1581115722655	1966.965698242188	341.8058166503907	-183.0668487548827	2023.583251953125	334.1546630859376	-204.3792266845702	2036.993286132812	250.5034484863282	-222.837661743164	1975.3759765625	241.8989868164063	-203.8074798583984	1967.51416015625	36.28102874755866	-287.8723449707031	2133.85546875	29.82058715820317	-213.5248718261719	2180.505615234375	55.07113265991217	-303.1026000976562	1715.909301757812	922.8150024414064	-490.2457885742185	1737.595458984375	631.0017089843751	-476.8856506347655	1689.682373046875	664.1185302734376	-487.5207214355467	1652.637573242188	568.4234619140626	-459.191925048828	1714.729248046875	554.7022094726564	-453.9805297851561	1534.248168945312	328.5454101562501	-439.6328430175781	1476.89990234375	347.4197082519532	-445.8455200195312	1420.419677734375	283.7871093750001	-426.0476989746093	1473.723022460938	248.8326416015626	-414.1622009277343	1271.775146484375	175.730941772461	-351.7264099121093	1380.772338867188	31.4361114501954	-402.0611877441406	1408.721923828125	28.00275993347175	-297.5884399414062	
316	1.26	1899.244506835938	1704.652587890625	-303.8425598144527	1839.2421875	1654.598022460938	-227.0754547119137	1839.156616210938	1656.2255859375	-372.8513488769528	1700.635864257812	1486.327880859375	-304.9578857421872	1619.9208984375	1290.115356445312	-250.2824554443357	1627.4853515625	1295.181274414062	-383.4051513671872	1876.849975585938	1320.7099609375	-301.2626647949216	1768.96435546875	1430.473022460938	-132.5754089355466	1719.569458007812	1270.91455078125	-48.38737106323214	1778.72265625	1184.283203125	-39.284915924072	1656.858520507812	1189.7978515625	-39.17704010009739	1701.805419921875	1081.45068359375	-27.82530403137183	1682.053100585938	1076.82861328125	-109.3472595214841	1795.001220703125	895.7526245117188	-17.53302764892558	1837.734130859375	829.1253051757812	-50.26573181152325	1764.068115234375	807.6654663085938	-28.2232246398924	1824.995361328125	737.3700561523438	-1.919378042220906	1785.58203125	1443.414794921875	-472.1552124023434	1768.537841796875	1278.137939453125	-569.1793212890623	1832.95751953125	1199.512573242188	-567.6823730468748	1713.109985351562	1199.557739257813	-598.8870849609373	1775.828857421875	1095.781005859375	-605.4147338867185	1723.019409179688	1084.257934570313	-547.6990966796873	1905.298217773438	938.2433471679689	-574.7833251953123	1943.488037109375	886.9719848632814	-519.490295410156	1904.792236328125	853.6826782226564	-580.6077880859373	1990.028686523438	814.1381835937501	-562.7899169921873	1785.594116210938	1037.664184570312	-141.5799713134763	1652.674682617188	1008.839660644531	-307.3790893554685	1767.092041015625	1033.408081054688	-488.0359191894529	1763.595947265625	890.1185913085938	-126.9302062988279	1898.31640625	635.9576416015625	-162.6184234619139	1945.311889648438	671.8560180664062	-166.0779418945311	1980.54150390625	576.7138061523438	-203.2389984130858	1922.269409179688	560.34228515625	-184.8755950927733	1972.356201171875	342.4493408203126	-182.6286468505859	2028.658203125	334.1280212402344	-204.8551788330077	2040.683715820312	250.225570678711	-223.2975311279296	1979.244384765625	242.4705352783204	-203.1416931152343	1968.16796875	36.7750320434571	-287.59228515625	2134.910888671875	27.71401596069341	-214.2289733886719	2181.158447265625	52.53447723388678	-303.9962768554688	1722.958618164062	922.9330444335939	-491.3007202148435	1745.984497070312	630.7440795898439	-477.3910827636718	1698.0966796875	663.3741455078126	-487.3446655273436	1661.169921875	566.9251098632814	-459.0715026855468	1723.644409179688	553.9931030273439	-454.8876342773436	1541.424560546875	328.950408935547	-440.6038513183593	1484.241333007812	348.9864501953126	-446.5111083984374	1427.142333984375	285.3734741210939	-426.4458618164062	1480.074462890625	249.7778930664063	-414.3740539550781	1278.250122070312	180.1998138427735	-352.1500244140624	1382.05859375	32.24394607543955	-402.3447265625	1409.096923828125	28.24238777160651	-297.6567687988281	
317	1.264	1905.36767578125	1705.204833984375	-303.3570861816402	1845.541381835938	1655.20068359375	-226.4541015624996	1845.299926757812	1656.727905273438	-372.5035400390622	1707.137084960938	1486.890991210938	-304.3545532226559	1626.5283203125	1290.135864257812	-249.7737884521482	1633.963623046875	1295.337646484375	-382.8391418457028	1883.395629882812	1321.332275390625	-300.5624999999997	1775.297729492188	1430.636840820312	-131.9241790771481	1726.087158203125	1271.064331054688	-48.03771591186495	1785.232666015625	1184.42041015625	-39.06115722656224	1663.47216796875	1189.855834960938	-38.92088699340794	1708.455200195312	1081.62060546875	-27.87329101562476	1688.67041015625	1077.011474609375	-109.248710632324	1802.145141601562	895.945068359375	-17.81061744689922	1844.890502929688	829.5360107421875	-50.59000778198224	1771.631591796875	807.2285766601562	-30.39038848876935	1833.028686523438	737.5943603515625	-2.389231920242146	1792.097534179688	1444.058471679688	-471.6998596191403	1774.61767578125	1278.7958984375	-568.7385253906248	1838.617309570312	1199.828125	-567.044738769531	1718.820190429688	1200.280395507813	-598.2711791992185	1781.187866210938	1096.533447265625	-604.632385253906	1728.52880859375	1084.917236328125	-546.9517822265623	1909.993041992188	938.0026245117189	-574.7211914062498	1948.035400390625	886.4189453125001	-519.7289428710935	1908.964111328125	853.2965087890626	-580.5787963867185	1993.959106445312	813.3773803710939	-563.2265624999998	1791.815795898438	1038.026123046875	-141.5070953369138	1659.399169921875	1009.049499511719	-307.6461791992185	1774.320678710938	1033.43017578125	-487.7676086425779	1770.533569335938	891.4566040039062	-126.8681335449217	1905.931030273438	637.12646484375	-162.1062164306639	1952.721435546875	673.1378784179688	-166.275680541992	1987.52001953125	577.915283203125	-203.7848358154295	1929.442626953125	561.4630737304688	-184.4784088134764	1977.70947265625	343.0472717285157	-182.4404754638671	2033.467163085938	333.9971008300782	-205.5555114746093	2044.18310546875	249.8003692626954	-223.7832794189453	1983.013671875	242.9125366210938	-202.6246185302734	1968.75048828125	37.20817184448249	-287.24609375	2135.8330078125	25.98458099365239	-214.9696655273438	2181.95361328125	50.22727203369148	-304.9989929199219	1730.303955078125	922.5921630859376	-491.1233825683591	1754.661743164062	630.4503784179689	-477.6398010253905	1706.32568359375	662.9449462890626	-487.6696472167967	1670.5849609375	566.7224121093751	-460.2687988281249	1732.886474609375	553.5422973632814	-455.9142761230468	1548.765502929688	329.8463439941407	-441.7657775878906	1491.759643554688	350.3742675781251	-446.9853210449218	1433.869750976562	287.4220581054689	-426.8576965332031	1486.555908203125	251.0428009033204	-415.9017944335937	1285.331298828125	184.5476531982423	-352.5123901367187	1382.777465820312	32.12675857543955	-402.380615234375	1409.572631835938	28.61740303039558	-297.7985229492188	
318	1.268	1911.527465820312	1705.792358398438	-302.9544067382809	1851.7021484375	1655.664428710938	-226.0028686523434	1851.555053710938	1657.228515625	-371.8617858886715	1713.643920898438	1487.424926757812	-303.7180786132809	1633.040893554688	1290.354858398438	-249.3362731933591	1640.494018554688	1295.806884765625	-382.3352355957028	1889.822875976562	1322.010131835938	-300.1271667480466	1781.548950195312	1430.84619140625	-131.4384307861325	1732.635375976562	1271.171020507812	-47.77174758911104	1791.873657226562	1184.571899414062	-38.899662017822	1670.050048828125	1189.987060546875	-38.59016799926732	1713.087524414062	1081.781860351562	-28.31721496582007	1695.300415039062	1077.272216796875	-109.044868469238	1809.297607421875	896.1650390625	-17.98071670532207	1852.197143554688	829.9744262695312	-50.95132064819317	1778.953735351562	807.3759765625	-30.76807975769025	1840.309692382812	738.063232421875	-2.796395063400105	1798.479125976562	1444.632080078125	-471.2487487792965	1780.49560546875	1279.26953125	-568.1669311523435	1844.77294921875	1200.14111328125	-566.5522460937498	1724.600219726562	1201.005737304688	-597.6771240234373	1786.652465820312	1096.839477539063	-603.965881347656	1734.168334960938	1085.616088867188	-546.193176269531	1914.600463867188	937.6965942382814	-574.7094116210935	1952.899047851562	886.0693969726564	-520.502746582031	1912.909057617188	853.0990600585939	-580.6088256835935	1997.815673828125	812.5816650390626	-563.5939941406248	1799.492919921875	1038.655883789062	-140.979782104492	1666.013061523438	1009.519348144531	-307.8446655273435	1781.704345703125	1033.380859375	-487.4747924804685	1777.439208984375	892.8695678710938	-126.5915756225584	1913.16357421875	638.3430786132812	-161.6741638183592	1960.019775390625	674.0902099609375	-166.5397186279295	1994.277954101562	578.813720703125	-204.3710479736327	1936.502807617188	562.4119262695312	-184.0638732910155	1982.903442382812	343.2301330566407	-182.579116821289	2037.991577148438	333.4546508789063	-206.2394409179687	2047.443603515625	249.3328704833985	-224.5269470214843	1986.395141601562	243.131088256836	-202.1920166015624	1969.32861328125	37.62660980224616	-287.0989379882812	2136.71435546875	24.65224456787114	-215.2665557861328	2182.692626953125	47.77608489990241	-306.2318115234375	1737.5693359375	922.3834228515626	-491.229064941406	1763.402954101562	630.1428833007814	-478.229766845703	1714.932861328125	662.6414794921876	-487.8055419921873	1679.6513671875	565.9039306640626	-460.8564453124999	1742.039428710938	552.9029541015626	-457.0207214355468	1556.175048828125	330.6833801269532	-443.0029296874999	1499.50146484375	351.9544372558595	-447.4954528808593	1441.056762695312	289.5494995117189	-427.4203491210937	1493.339477539062	252.4529418945313	-417.2337646484374	1292.72802734375	188.9358825683595	-352.4665832519531	1384.027099609375	33.66315078735361	-402.1021423339844	1410.191162109375	29.06785774230964	-298.01708984375	
